<svg id="Layer_1" data-name="Layer 1" xmlns="http://www.w3.org/2000/svg" viewBox="0 0 632 237"><title>Artboard 1</title><path d="M8.82,128.76v3.62a43.13,43.13,0,0,1,22-5.58c19.91,0,35.45,14,35.45,37.41,0,23.84-14.48,39.38-38,39.38a38.8,38.8,0,0,1-19.46-4.83v35.91l-6.49,2.11v-108Zm0,9.81v53.71C14.25,196,20.43,198,28.58,198c18.86,0,30.78-12.82,30.78-33.19,0-19.16-11.47-31.68-29.57-31.68C21,133.14,14.25,134.8,8.82,138.57Z" style="fill:#fff"/><path d="M79.74,164.82c0-24.44,14.18-38.77,33.94-38.77,18.25,0,33.94,12.52,33.94,38.77s-15.69,38.77-33.94,38.77C93.92,203.59,79.74,189.26,79.74,164.82Zm61.1,0c0-20.37-10.71-32.59-27.16-32.59-17.2,0-27.16,13.73-27.16,32.59s10,32.59,27.16,32.59C130.13,197.41,140.84,185.19,140.84,164.82Z" style="fill:#fff"/><path d="M202.25,134.8c-12.22,0-21,3.77-26.7,10-2.41,2.72-3.47,6-3.47,15.09V201h-6.49V128.76h6.49v13.13c6.49-8.15,14-12.22,23.23-13.43a50.27,50.27,0,0,1,6.94-.45Z" style="fill:#fff"/><path d="M225,128.76V104.63l6.34-1.66v25.8h23.53v5.88H231.33v41.79c0,13.58,1.66,17.35,12.82,23.38v.91l-8.6,1.06C228,198.16,225,192.73,225,176.44V134.65H210.52v-5.88Z" style="fill:#fff"/><path d="M260.38,164.82c0-24.44,14.18-38.77,33.94-38.77,18.25,0,33.94,12.52,33.94,38.77s-15.69,38.77-33.94,38.77C274.56,203.59,260.38,189.26,260.38,164.82Zm61.1,0c0-20.37-10.71-32.59-27.16-32.59-17.2,0-27.16,13.73-27.16,32.59s10,32.59,27.16,32.59C310.77,197.41,321.48,185.19,321.48,164.82Z" style="fill:#fff"/><path d="M352.88,201h-6.49V84.86l6.49-1.51Z" style="fill:#fff"/><path d="M430.25,202.69a40.72,40.72,0,0,1-1.51-8.75,35.76,35.76,0,0,1-23.69,8.45c-21.57,0-33.94-16.29-33.94-36.66,0-24.14,15.09-39.53,37.11-39.53A41.72,41.72,0,0,1,429,131.33l6-.91v56.72c0,5.88.45,9.2,1.66,12.82Zm-1.66-16.14V139.32c-5.43-4.53-11.92-6.79-20.37-6.79-19,0-30.17,12.82-30.17,32.89,0,17.65,10,30.78,27.46,30.78C415.47,196.2,423.31,192.88,428.59,186.54Z" style="fill:#fff"/><path d="M458.48,128.76H465v14.48c8.15-11,18.1-16,27.61-16,14.48,0,23.69,8,23.69,24.29V201h-6.49V153.5c0-14-5.88-20.06-18-20.06-9.2,0-17.2,5.28-22.48,12.37-3.17,4.38-4.37,7.39-4.37,14.48V201h-6.49Z" style="fill:#fff"/><path d="M577.33,32.61,569.89,0V62.16H584Z" style="fill:#9b1863"/><path d="M569.89,62.16V76.3l29.55-6.7L632,62.16Z" style="fill:#9b1863"/><polygon points="599.44 54.71 581.46 50.59 569.89 62.16 632 62.16 599.44 54.71" style="fill:#721c49"/><path d="M555.75,62.16l6.7,29.55,7.44,32.56V62.16Z" style="fill:#9b1863"/><polygon points="569.89 62.16 569.89 124.27 577.33 91.71 581.46 73.73 569.89 62.16" style="fill:#721c49"/><path d="M540.34,54.71l-32.56,7.44h62.11V48Z" style="fill:#9b1863"/><polygon points="507.78 62.16 540.34 69.6 558.32 73.73 569.89 62.16 507.78 62.16" style="fill:#721c49"/><polygon points="562.45 32.61 558.32 50.59 569.89 62.16 569.89 0.05 562.45 32.61" style="fill:#721c49"/><polygon points="549.79 71.77 542.69 82.85 532.03 99.82 558.36 73.69 549.79 71.77" style="fill:#9b1863"/><polygon points="558.36 73.69 532.03 99.82 549.01 89.16 560.41 82.74 558.36 73.69" style="fill:#721c49"/><polygon points="549.17 35.06 532.2 24.4 558.33 50.73 560.25 42.16 549.17 35.06" style="fill:#9b1863"/><polygon points="532.2 24.4 542.86 41.37 549.28 52.78 558.33 50.73 532.2 24.4" style="fill:#721c49"/><polygon points="581.43 73.66 579.51 82.22 590.59 89.33 607.56 99.98 581.43 73.66" style="fill:#9b1863"/><polygon points="596.9 83.01 590.48 71.61 581.43 73.66 607.56 99.98 596.9 83.01" style="fill:#721c49"/><polygon points="581.41 50.63 589.98 52.54 597.08 41.47 607.74 24.5 581.41 50.63" style="fill:#9b1863"/><polygon points="590.77 35.15 579.36 41.57 581.41 50.63 607.74 24.5 590.77 35.15" style="fill:#721c49"/></svg>