<?xml version="1.0" encoding="utf-8"?>
<!-- Generator: Adobe Illustrator 21.1.0, SVG Export Plug-In . SVG Version: 6.00 Build 0)  -->
<svg version="1.1" id="Layer_1" xmlns="http://www.w3.org/2000/svg" xmlns:xlink="http://www.w3.org/1999/xlink" x="0px" y="0px"
	 viewBox="0 0 632 237" style="enable-background:new 0 0 632 237;" xml:space="preserve">
<style type="text/css">
	.st0{fill:#FFFFFF;}
	.st1{font-family:'MetroNovaPro-Light';}
	.st2{font-size:150.8705px;}
	.st3{fill:#9B1863;}
	.st4{fill:#721C49;}
</style>
<text transform="matrix(1 0 0 1 -12.001 201.0273)" class="st0 st1 st2">portolan</text>
<g>
	<g>
		<g>
			<path class="st3" d="M577.3,32.6L569.9,0v62.1c5.2,0,9,0,14.1,0L577.3,32.6z"/>
		</g>
	</g>
	<g>
		<g>
			<g>
				<path class="st3" d="M569.9,62.2c0,5.2,0,9,0,14.1l29.6-6.7l32.6-7.4H569.9z"/>
			</g>
		</g>
		<g>
			<g>
				<polygon class="st4" points="599.4,54.7 581.5,50.6 569.9,62.2 632,62.2 				"/>
			</g>
		</g>
	</g>
	<g>
		<g>
			<g>
				<path class="st3" d="M555.7,62.2l6.7,29.6l7.4,32.6V62.2C564.7,62.2,560.9,62.2,555.7,62.2z"/>
			</g>
		</g>
		<g>
			<g>
				<polygon class="st4" points="569.9,62.2 569.9,124.3 577.3,91.7 581.5,73.7 				"/>
			</g>
		</g>
	</g>
	<g>
		<g>
			<g>
				<path class="st3" d="M540.3,54.7l-32.6,7.4h62.1c0-5.2,0-9,0-14.1L540.3,54.7z"/>
			</g>
		</g>
		<g>
			<g>
				<polygon class="st4" points="507.8,62.2 540.3,69.6 558.3,73.7 569.9,62.2 				"/>
			</g>
		</g>
	</g>
	<g>
		<g>
			<polygon class="st4" points="562.4,32.6 558.3,50.6 569.9,62.2 569.9,0 			"/>
		</g>
	</g>
	<g>
		<g>
			<g>
				<polygon class="st3" points="549.8,71.8 542.7,82.8 532,99.8 558.4,73.7 				"/>
			</g>
		</g>
		<g>
			<g>
				<polygon class="st4" points="558.4,73.7 532,99.8 549,89.2 560.4,82.7 				"/>
			</g>
		</g>
	</g>
	<g>
		<g>
			<g>
				<polygon class="st3" points="549.2,35.1 532.2,24.4 558.3,50.7 560.2,42.2 				"/>
			</g>
		</g>
		<g>
			<g>
				<polygon class="st4" points="532.2,24.4 542.9,41.4 549.3,52.8 558.3,50.7 				"/>
			</g>
		</g>
	</g>
	<g>
		<g>
			<g>
				<polygon class="st3" points="581.4,73.7 579.5,82.2 590.6,89.3 607.6,100 				"/>
			</g>
		</g>
		<g>
			<g>
				<polygon class="st4" points="596.9,83 590.5,71.6 581.4,73.7 607.6,100 				"/>
			</g>
		</g>
	</g>
	<g>
		<g>
			<g>
				<polygon class="st3" points="581.4,50.6 590,52.5 597.1,41.5 607.7,24.5 				"/>
			</g>
		</g>
		<g>
			<g>
				<polygon class="st4" points="590.8,35.2 579.4,41.6 581.4,50.6 607.7,24.5 				"/>
			</g>
		</g>
	</g>
</g>
</svg>
